<svg width="40" height="40" viewBox="0 0 40 40" fill="none" xmlns="http://www.w3.org/2000/svg">
<path d="M9.53741 8H30.3474C31.1893 8 31.8848 8.74482 31.8848 9.65314V30.054C31.8848 30.9623 31.2076 31.7071 30.3474 31.7071H9.53741C8.6955 31.7071 8 30.9623 8 30.054V9.65314C8 8.74482 8.6955 8 9.53741 8Z" fill="#E60F05"/>
<path d="M24.8566 23.15C24.6553 22.9502 24.4174 22.823 24.1428 22.7685C23.8683 22.714 23.5937 22.7504 23.3375 22.8412C23.0813 22.9502 22.8616 23.1137 22.7152 23.3499C22.5688 23.5678 22.4773 23.8403 22.4773 24.1128C22.4773 24.2945 22.5139 24.4762 22.5871 24.6397C22.6603 24.8032 22.7518 24.9667 22.88 25.0938C23.0081 25.221 23.1545 25.33 23.3375 25.3845C23.5022 25.4572 23.6853 25.4935 23.8683 25.4935C24.1428 25.4935 24.4174 25.4208 24.637 25.2573C24.8566 25.112 25.0396 24.894 25.1495 24.6397C25.2593 24.3853 25.2776 24.1128 25.2227 23.8403C25.1861 23.586 25.0579 23.3499 24.8566 23.15ZM23.8866 24.8032C23.5205 24.8032 23.2094 24.4943 23.2094 24.131C23.2094 23.7677 23.5205 23.4588 23.8866 23.4588C24.2526 23.4588 24.5821 23.7677 24.5821 24.131C24.5821 24.4943 24.2526 24.8032 23.8866 24.8032Z" fill="white"/>
<path d="M27.3093 22.3508H26.9066C26.5406 22.3508 26.3576 22.1873 26.1928 22.0056C25.9 21.6786 25.5522 21.4243 25.1496 21.2426C24.7469 21.0609 24.326 20.9883 23.8867 20.9883H12.6856C12.649 20.9883 12.6124 21.0064 12.5758 21.0246C12.5392 21.0428 12.5209 21.0609 12.4843 21.0791C12.466 21.0973 12.4477 21.1336 12.4294 21.1699C12.4111 21.2063 12.3927 21.2426 12.3927 21.2789V21.7876V23.1137C12.3927 23.3136 12.228 23.2409 12.228 23.5679V23.7496C12.228 23.9676 12.3561 24.0947 12.5575 24.0947H12.9235C12.9784 24.0947 13.1065 24.0584 13.1065 23.9131C13.1065 22.7868 14.04 21.8603 15.1381 21.8603C16.2363 21.8603 17.2063 22.7323 17.2063 23.9131C17.2063 24.0221 17.2795 24.0766 17.371 24.0766H21.6355C21.7453 24.0766 21.8185 24.0039 21.8185 23.8949C21.8185 22.8231 22.6788 21.8421 23.8867 21.8421C25.0215 21.8421 25.9366 22.7686 25.9366 23.8949C25.9366 23.9676 25.9732 24.0766 26.1196 24.0766H27.3276C27.5106 24.0766 27.6753 23.8949 27.6753 23.7314V22.7141C27.6387 22.4779 27.5289 22.3508 27.3093 22.3508Z" fill="white"/>
<path d="M16.1264 23.15C15.9251 22.9502 15.6871 22.823 15.4126 22.7685C15.1381 22.714 14.8635 22.7504 14.6073 22.8412C14.3511 22.9502 14.1314 23.1137 13.985 23.3499C13.8386 23.5678 13.7471 23.8403 13.7471 24.1128C13.7471 24.2945 13.7837 24.4762 13.8569 24.6397C13.9301 24.8032 14.0216 24.9667 14.1497 25.0938C14.2778 25.221 14.4243 25.33 14.6073 25.3845C14.772 25.4572 14.955 25.4935 15.1381 25.4935C15.4126 25.4935 15.6871 25.4208 15.9068 25.2573C16.1264 25.112 16.3094 24.894 16.4192 24.6397C16.5291 24.3853 16.5474 24.1128 16.4924 23.8403C16.4558 23.586 16.3277 23.3499 16.1264 23.15ZM15.1564 24.8032C14.7903 24.8032 14.4792 24.4943 14.4792 24.131C14.4792 23.7677 14.7903 23.4588 15.1564 23.4588C15.5224 23.4588 15.8519 23.7677 15.8519 24.131C15.8519 24.4943 15.5224 24.8032 15.1564 24.8032Z" fill="white"/>
<path d="M12.466 19.9528C12.4843 19.9891 12.5209 20.0073 12.5575 20.0254C12.5941 20.0436 12.6308 20.0436 12.6674 20.0436H23.8685C24.8385 20.0254 25.7903 20.4069 26.4857 21.0609C26.5956 21.1699 26.742 21.4061 26.9616 21.4061H27.1812C27.2911 21.4061 27.3277 21.3516 27.3277 21.2244V19.6439C27.3277 17.4276 25.9733 15.6473 23.6672 14.7753C21.2695 13.8307 15.5592 14.194 13.253 14.7935C12.887 14.8843 12.3928 15.066 12.3928 15.7563V19.3896L12.4111 19.7348C12.3928 19.8256 12.4294 19.8983 12.466 19.9528ZM21.7637 16.1378C21.7637 16.0288 21.8003 15.9562 21.9467 15.9562H22.6605C24.381 15.9562 25.5523 17.1188 26.1929 18.8446C26.2295 18.9354 26.2112 19.0808 26.0282 19.0808H21.9467C21.8369 19.0808 21.7637 18.9718 21.7637 18.8991V16.1378ZM17.5907 16.1378C17.5907 16.1197 17.5907 16.0833 17.609 16.0652C17.609 16.047 17.6273 16.0288 17.6456 16.0107C17.6639 15.9925 17.6822 15.9743 17.7005 15.9743C17.7189 15.9743 17.7372 15.9562 17.7738 15.9562H20.7937C20.9035 15.9562 20.9767 16.0288 20.9767 16.1378V18.8809C20.9767 18.9718 20.9035 19.0626 20.7937 19.0626H17.7555C17.6639 19.0626 17.5724 19.0263 17.5724 18.8809V16.1378H17.5907ZM13.3629 16.1378C13.3629 16.1015 13.3629 15.9562 13.5276 15.9562H16.6207C16.7305 15.9562 16.8037 16.0288 16.8037 16.1197V18.8991C16.8037 18.9536 16.7671 19.0626 16.6207 19.0626H13.5276C13.3995 19.0626 13.3629 18.9536 13.3629 18.8809V16.1378Z" fill="white"/>
</svg>
