<svg width="40" height="40" viewBox="0 0 40 40" fill="none" xmlns="http://www.w3.org/2000/svg">
<path d="M20.9259 36.4962C20.3505 36.4962 19.7751 36.3555 19.2572 36.0461L13.8195 32.7832C12.0933 31.7424 11 29.8578 11 27.8607V9.04259C11 7.88931 11.6042 6.87668 12.6399 6.31411C13.6757 5.75154 14.8841 5.77966 15.8623 6.37036L21.2999 9.60516C23.055 10.6459 24.1195 12.5306 24.1195 14.5277V33.3457C24.1195 34.499 23.5153 35.5117 22.4795 36.0742C22.0192 36.3555 21.4725 36.4962 20.9259 36.4962ZM14.2223 8.11435C13.9922 8.11435 13.8195 8.19873 13.7332 8.22686C13.5894 8.31125 13.2441 8.56441 13.2441 9.04259V27.8607C13.2441 29.0983 13.9058 30.2797 14.9991 30.9267L20.4368 34.1615C20.8684 34.4146 21.2711 34.274 21.415 34.1896C21.5589 34.1052 21.9041 33.8521 21.9041 33.3739V14.5559C21.9041 13.3182 21.2424 12.1368 20.1491 11.4898L14.7114 8.25499C14.5388 8.14246 14.3662 8.11435 14.2223 8.11435Z" fill="white"/>
<path d="M26.3925 27.2412C25.817 27.2412 25.2416 27.1006 24.7238 26.7912L19.2861 23.5283C17.5311 22.4874 16.4666 20.6028 16.4666 18.6056V6.06029C16.4666 4.90702 17.0707 3.89439 18.1065 3.33181C19.1422 2.76923 20.3506 2.79736 21.3288 3.38807L26.7665 6.62286C28.5215 7.66363 29.586 9.54825 29.586 11.5454V24.0908C29.586 25.2441 28.9818 26.2567 27.9461 26.8193C27.457 27.1006 26.9391 27.2412 26.3925 27.2412ZM19.6601 5.10392C19.4299 5.10392 19.2573 5.1883 19.171 5.21643C19.0271 5.30082 18.6819 5.55398 18.6819 6.03216V18.5775C18.6819 19.8152 19.3436 20.9966 20.4369 21.6435L25.8746 24.8784C26.3061 25.1316 26.7089 24.9909 26.8528 24.9066C26.9966 24.8222 27.3419 24.569 27.3419 24.0908V11.5454C27.3419 10.3077 26.6802 9.12632 25.5869 8.47936L20.1492 5.24456C19.9766 5.13205 19.804 5.10392 19.6601 5.10392Z" fill="white"/>
</svg>
