<svg width="40" height="40" viewBox="0 0 40 40" fill="none" xmlns="http://www.w3.org/2000/svg">
<path d="M20.9259 36.4085C20.3505 36.4085 19.7751 36.2644 19.2572 35.9472L13.8195 32.6027C12.0933 31.536 11 29.6042 11 27.5572V8.26863C11 7.08652 11.6042 6.04857 12.6399 5.47194C13.6757 4.8953 14.8841 4.92413 15.8623 5.5296L21.2999 8.84527C23.055 9.91204 24.1195 11.8438 24.1195 13.8909V33.1794C24.1195 34.3615 23.5153 35.3994 22.4795 35.9761C22.0192 36.2644 21.4725 36.4085 20.9259 36.4085ZM14.2223 7.31718C13.9922 7.31718 13.8195 7.40368 13.7332 7.43251C13.5894 7.519 13.2441 7.77849 13.2441 8.26863V27.5572C13.2441 28.8258 13.9058 30.0367 14.9991 30.6998L20.4368 34.0155C20.8684 34.275 21.2711 34.1308 21.415 34.0443C21.5589 33.9578 21.9041 33.6983 21.9041 33.2082V13.9197C21.9041 12.6511 21.2424 11.4402 20.1491 10.777L14.7114 7.46134C14.5388 7.346 14.3662 7.31718 14.2223 7.31718Z" fill="#34C759"/>
<path d="M26.3925 26.9222C25.817 26.9222 25.2416 26.7781 24.7238 26.4609L19.2861 23.1164C17.5311 22.0495 16.4666 20.1178 16.4666 18.0707V5.21175C16.4666 4.02964 17.0707 2.9917 18.1065 2.41505C19.1422 1.83841 20.3506 1.86724 21.3288 2.47272L26.7665 5.78838C28.5215 6.85517 29.586 8.7869 29.586 10.834V23.6931C29.586 24.8752 28.9818 25.9131 27.9461 26.4897C27.457 26.7781 26.9391 26.9222 26.3925 26.9222ZM19.6601 4.23146C19.4299 4.23146 19.2573 4.31796 19.171 4.34679C19.0271 4.43329 18.6819 4.69277 18.6819 5.18291V18.0419C18.6819 19.3105 19.3436 20.5214 20.4369 21.1846L25.8746 24.5003C26.3061 24.7598 26.7089 24.6157 26.8528 24.5292C26.9966 24.4427 27.3419 24.1832 27.3419 23.6931V10.834C27.3419 9.56536 26.6802 8.35442 25.5869 7.69129L20.1492 4.37562C19.9766 4.2603 19.804 4.23146 19.6601 4.23146Z" fill="#34C759"/>
</svg>
