<svg width="40" height="40" viewBox="0 0 40 40" fill="none" xmlns="http://www.w3.org/2000/svg">
<path d="M14.7937 31.8446C19.2428 27.8518 21.8003 28.2524 25.1659 27.5073C30.0965 26.4163 31.944 22.8927 32.7321 19.5329C34.0301 14.008 30.4856 8.47893 24.8166 7.18488C23.1991 6.81515 20.2624 7.00982 18.4234 7.68065C12.3724 9.88501 8.55383 14.6817 8.02556 21.446C8.01562 21.5749 8.0071 21.7037 8 21.8325C8.9685 20.6533 10.1457 19.3019 12.0955 19.1982C9.04518 23.7218 8.6646 26.8141 10.2949 32.6289C10.3304 32.7535 10.3673 32.8768 10.4042 33C12.0799 29.6388 14.5011 26.3365 17.3953 26.0018C17.178 26.2357 14.646 27.6053 14.7937 31.8446Z" fill="#34A7FF"/>
</svg>
