<svg width="40" height="40" viewBox="0 0 40 40" fill="none" xmlns="http://www.w3.org/2000/svg">
<path d="M19.252 8C11.5459 8 8.21962 14.6318 8.21962 14.6318L9.19873 15.3095C9.19873 15.3095 7.9666 17.5749 8.00069 20.4806C8.00069 26.4123 12.8844 32 20.0737 32C26.6049 32 32 26.8603 32 20.4952C32 12.1937 25.3416 8 19.252 8H19.252ZM19.3188 10.0236C25.3396 10.0236 30.0116 14.7145 30.0116 20.1679C30.0116 25.9488 25.5146 29.9691 20.2742 29.9691C16.4175 29.9691 12.9384 27.1295 12.9384 23.2361C12.9384 20.9875 14.1745 19.4197 15.5598 18.5842L15.7625 18.7969C15.3834 19.0837 14.3025 20.7625 14.3025 22.4125C14.3025 25.4757 16.787 27.5972 19.9173 27.5972C23.9048 27.5972 26.5641 24.309 26.5641 20.4911C26.5641 16.0489 22.5086 12.2777 17.628 12.2777C14.9285 12.2777 12.6374 13.4001 11.3209 14.391L11.116 14.2117C12.8384 11.644 15.8211 10.0236 19.3188 10.0236ZM17.5223 14.2732C20.6369 14.2732 23.6776 16.2653 24.4366 19.093L24.1605 19.1941C22.7977 17.4541 20.5647 16.0122 17.9278 16.0122C13.0756 16.0122 10.5273 20.2751 10.9014 23.8356L10.6157 23.9368C10.6157 23.9368 10.0797 22.7935 10.0797 21.4377C10.0797 17.5117 13.4144 14.2732 17.5223 14.2732ZM19.5809 19.2003C21.0554 19.2003 22.2347 20.3559 22.2347 21.7276C22.2347 22.8627 21.4809 23.5354 21.4809 23.5354L22.3737 24.139C22.3737 24.139 21.4884 25.4829 19.6811 25.4829C17.9524 25.4829 16.4235 24.1338 16.4235 22.3197C16.4235 20.4504 18.0865 19.2003 19.5809 19.2003Z" fill="white"/>
</svg>
