<svg width="40" height="40" viewBox="0 0 40 40" fill="none" xmlns="http://www.w3.org/2000/svg">
<path d="M15.2737 27.1048V12.6286L10.016 11.2912C9.89418 11.253 9.76484 11.2452 9.63929 11.2685C9.51374 11.2918 9.39582 11.3455 9.29582 11.4249C9.19582 11.5044 9.11679 11.607 9.06563 11.724C9.01447 11.841 8.99275 11.9688 9.00235 12.0961V33.3584C8.99244 33.4859 9.01394 33.6138 9.06496 33.7311C9.11598 33.8483 9.19498 33.9513 9.29502 34.0309C9.39507 34.1105 9.51311 34.1644 9.63881 34.1878C9.76451 34.2112 9.89403 34.2034 10.016 34.1651L24.7134 30.4271C24.9991 30.3405 25.2507 30.1668 25.4328 29.9301C25.6148 29.6935 25.7184 29.4058 25.7288 29.1074V25.5091L16.2891 27.9097C16.1672 27.9478 16.0378 27.9556 15.9122 27.9322C15.7866 27.9089 15.6686 27.8552 15.5685 27.7759C15.4683 27.6965 15.3892 27.5939 15.3378 27.4769C15.2864 27.36 15.2644 27.2322 15.2737 27.1048Z" fill="black"/>
<path d="M30.9862 8.77375L16.2889 5.03573C16.1668 4.99755 16.0372 4.98983 15.9115 5.01324C15.7857 5.03666 15.6676 5.0905 15.5675 5.17007C15.4673 5.24963 15.3881 5.35251 15.3369 5.46971C15.2856 5.58691 15.2639 5.71487 15.2734 5.84242V12.6285L24.7131 15.0274C24.9989 15.1145 25.2504 15.2887 25.4324 15.5256C25.6144 15.7625 25.718 16.0503 25.7286 16.3489V25.509L30.9862 24.1734C31.2717 24.086 31.5227 23.9117 31.7044 23.6748C31.8861 23.4379 31.9894 23.1503 31.9999 22.8519V10.0935C31.9896 9.79528 31.8863 9.50777 31.7046 9.27114C31.5228 9.03452 31.2717 8.86061 30.9862 8.77375Z" fill="#272727"/>
</svg>
